<svg xmlns="http://www.w3.org/2000/svg" viewBox="0 0 32 32">
  <rect width="32" height="32" fill="#ffffff"/>
  <rect x="2" y="2" width="28" height="28" fill="none" stroke="#101010" stroke-width="1"/>
  <g fill="#101010">
    <rect x="7" y="7" width="7" height="7"/>
    <rect x="8.5" y="8.5" width="4" height="4" fill="#ffffff"/>
    <rect x="9.5" y="9.5" width="2" height="2"/>
    <rect x="18" y="7" width="7" height="7"/>
    <rect x="19.5" y="8.5" width="4" height="4" fill="#ffffff"/>
    <rect x="20.5" y="9.5" width="2" height="2"/>
    <rect x="7" y="18" width="7" height="7"/>
    <rect x="8.5" y="19.5" width="4" height="4" fill="#ffffff"/>
    <rect x="9.5" y="20.5" width="2" height="2"/>
    <rect x="17" y="17" width="3" height="3"/>
    <rect x="22" y="17" width="3" height="3"/>
    <rect x="17" y="22" width="3" height="3"/>
    <rect x="22" y="22" width="3" height="3"/>
  </g>
  <path d="M16 0.5V3M16 29V31.5M0.5 16H3M29 16H31.5" stroke="#0093d0" stroke-width="1.5"/>
</svg>
